subject_01
version=1
nRows=339
nColumns=3
inDegrees=yes
endheader
time	r_shoulder_elev	r_elbow_flex
103.2100	10.112413	23.708868
103.2200	10.112413	23.850917
103.2300	10.112413	23.726590
103.2400	10.112413	23.344798
103.2500	10.112413	22.774137
103.2600	10.112413	22.129088
103.2700	10.112413	21.544355
103.2800	10.112413	21.143744
103.2900	10.112413	21.011509
103.3000	10.112413	21.173389
103.3100	10.112413	21.592008
103.3200	10.112413	22.177473
103.3300	10.112413	22.810054
103.3400	10.112413	23.368831
103.3500	10.112413	23.758893
103.3600	10.112413	23.930424
103.3700	10.112413	23.885502
103.3800	10.112413	23.671887
103.3900	10.112413	23.366538
103.4000	10.112413	23.054064
103.4100	10.112413	22.806192
103.4200	10.112413	22.667476
103.4300	10.112413	22.650214
103.4400	10.112413	22.738658
103.4500	10.112413	22.899975
103.4600	10.112413	23.097728
103.4700	10.112413	23.303461
103.4800	10.112413	23.503058
103.4900	10.112413	23.696627
103.5000	10.112413	23.892923
103.5100	10.112413	24.101087
103.5200	10.112413	24.323165
103.5300	10.112413	24.550370
103.5400	10.112413	24.764531
103.5500	10.112413	24.944215
103.5600	10.112413	25.073260
103.5700	10.112413	25.148514
103.5800	10.112413	25.183763
103.5900	10.112413	25.208043
103.6000	10.112413	25.258437
103.6100	10.112413	25.369348
103.6200	10.112413	25.561580
103.6300	10.112413	25.834811
103.6400	10.112413	26.166147
103.6500	10.112413	26.515662
103.6600	10.112413	26.837641
103.6700	10.112413	27.094426
103.6800	10.112413	27.268748
103.6900	10.112413	27.370751
103.7000	10.112413	27.437266
103.7100	10.112413	27.523127
103.7200	10.112413	27.686629
103.7300	10.112413	27.972994
103.7400	10.112413	28.400423
103.7500	10.112413	28.952719
103.7600	10.112413	29.580762
103.7700	10.112413	30.212726
103.7800	10.112413	30.770634
103.7900	10.112413	31.189102
103.8000	10.112413	31.431590
103.8100	10.112413	31.500129
103.8200	10.112413	31.436174
103.8300	10.112413	31.312482
103.8400	10.112413	31.218056
103.8500	10.112413	31.239758
103.8600	10.112413	31.444756
103.8700	10.112413	31.867498
103.8800	10.112413	32.503656
103.8900	10.112413	33.311744
103.9000	10.112413	34.221497
103.9100	10.112413	35.146869
103.9200	10.112413	36.000938
103.9300	10.112413	36.710079
103.9400	10.112413	37.225301
103.9500	10.112413	37.529419
103.9600	10.112413	37.639448
103.9700	10.112413	37.604211
103.9800	10.112413	37.497536
103.9900	10.112413	37.407758
104.0000	10.112413	37.424554
104.0100	10.112413	37.624610
104.0200	10.112413	38.058074
104.0300	10.112413	38.738106
104.0400	10.112413	39.635874
104.0500	10.112413	40.682806
104.0600	10.112413	41.780742
104.0700	10.112413	42.819029
104.0800	10.112413	43.695808
104.0900	10.112413	44.339288
104.1000	10.112413	44.724199
104.1100	10.112413	44.879145
104.1200	10.112413	44.882315
104.1300	10.112413	44.845625
104.1400	10.112413	44.890312
104.1500	10.112413	45.119377
104.1600	10.112413	45.593512
104.1700	10.112413	46.316678
104.1800	10.112413	47.235359
104.1900	10.112413	48.252136
104.2000	10.112413	49.250513
104.2100	10.112413	50.124785
104.2200	10.112413	50.807179
104.2300	10.112413	51.284986
104.2400	10.112413	51.602898
104.2500	10.112413	51.849708
104.2600	10.112413	52.132804
104.2700	10.112413	52.547383
104.2800	10.112413	53.148949
104.2900	10.112413	53.936914
104.3000	10.112413	54.854190
104.3100	10.112413	55.803201
104.3200	10.112413	56.674070
104.3300	10.112413	57.377146
104.3400	10.112413	57.870562
104.3500	10.112413	58.174692
104.3600	10.112413	58.368911
104.3700	10.112413	58.571024
104.3800	10.112413	58.904704
104.3900	10.112413	59.463912
104.4000	10.112413	60.284400
104.4100	10.112413	61.330685
104.4200	10.112413	62.502732
104.4300	10.112413	63.661112
104.4400	10.112413	64.664137
104.4500	10.112413	65.406922
104.4600	10.112413	65.851497
104.4700	10.112413	66.039371
104.4800	10.112413	66.082606
104.4900	10.112413	66.135379
104.5000	10.112413	66.353450
104.5100	10.112413	66.852408
104.5200	10.112413	67.676063
104.5300	10.112413	68.783715
104.5400	10.112413	70.059917
104.5500	10.112413	71.344265
104.5600	10.112413	72.473263
104.5700	10.112413	73.323029
104.5800	10.112413	73.841412
104.5900	10.112413	74.060991
104.6000	10.112413	74.089684
104.6100	10.112413	74.081750
104.6200	10.112413	74.197226
104.6300	10.112413	74.560818
104.6400	10.112413	75.231145
104.6500	10.112413	76.188219
104.6600	10.112413	77.341867
104.6700	10.112413	78.558076
104.6800	10.112413	79.695496
104.6900	10.112413	80.641886
104.7000	10.112413	81.340730
104.7100	10.112413	81.801388
104.7200	10.112413	82.090998
104.7300	10.112413	82.311481
104.7400	10.112413	82.568971
104.7500	10.112413	82.944699
104.7600	10.112413	83.475439
104.7700	10.112413	84.148398
104.7800	10.112413	84.910974
104.7900	10.112413	85.691443
104.8000	10.112413	86.423625
104.8100	10.112413	87.067780
104.8200	10.112413	87.621531
104.8300	10.112413	88.117942
104.8400	10.112413	88.611957
104.8500	10.112413	89.159971
104.8600	10.112413	89.799282
104.8700	10.112413	90.534022
104.8800	10.112413	91.331997
104.8900	10.112413	92.133375
104.9000	10.112413	92.868458
104.9100	10.112413	93.478980
104.9200	10.112413	93.936342
104.9300	10.112413	94.251179
104.9400	10.112413	94.471396
104.9500	10.112413	94.669276
104.9600	10.112413	94.921633
104.9700	10.112413	95.288968
104.9800	10.112413	95.799795
104.9900	10.112413	96.444618
105.0000	10.112413	97.180997
105.0100	10.112413	97.947775
105.0200	10.112413	98.683776
105.0300	10.112413	99.345066
105.0400	10.112413	99.915515
105.0500	10.112413	100.407647
105.0600	10.112413	100.853960
105.0700	10.112413	101.291970
105.0800	10.112413	101.748241
105.0900	10.112413	102.226973
105.1000	10.112413	102.707222
105.1100	10.112413	103.149964
105.1200	10.112413	103.512962
105.1300	10.112413	103.768648
105.1400	10.112413	103.918999
105.1500	10.112413	104.002049
105.1600	10.112413	104.087028
105.1700	10.112413	104.258575
105.1800	10.112413	104.593927
105.1900	10.112413	105.139412
105.2000	10.112413	105.893200
105.2100	10.112413	106.799849
105.2200	10.112413	107.759065
105.2300	10.112413	108.647147
105.2400	10.112413	109.345988
105.2500	10.112413	109.772175
105.2600	10.112413	109.898502
105.2700	10.112413	109.762097
105.2800	10.112413	109.456811
105.2900	10.112413	109.111716
105.3000	10.112413	108.861182
105.3100	10.112413	108.814148
105.3200	10.112413	109.030294
105.3300	10.112413	109.508831
105.3400	10.112413	110.192181
105.3500	10.112413	110.982877
105.3600	10.112413	111.768702
105.3700	10.112413	112.449228
105.3800	10.112413	112.957013
105.3900	10.112413	113.268616
105.4000	10.112413	113.403647
105.4100	10.112413	113.413422
105.4200	10.112413	113.363428
105.4300	10.112413	113.315045
105.4400	10.112413	113.311581
105.4500	10.112413	113.371876
105.4600	10.112413	113.492108
105.4700	10.112413	113.653965
105.4800	10.112413	113.835549
105.4900	10.112413	114.021015
105.5000	10.112413	114.205751
105.5100	10.112413	114.395808
105.5200	10.112413	114.602375
105.5300	10.112413	114.833851
105.5400	10.112413	115.088838
105.5500	10.112413	115.352951
105.5600	10.112413	115.600926
105.5700	10.112413	115.803582
105.5800	10.112413	115.937365
105.5900	10.112413	115.993215
105.6000	10.112413	115.981504
105.6100	10.112413	115.931011
105.6200	10.112413	115.881757
105.6300	10.112413	115.873577
105.6400	10.112413	115.933825
105.6500	10.112413	116.068047
105.6600	10.112413	116.256773
105.6700	10.112413	116.459817
105.6800	10.112413	116.627233
105.6900	10.112413	116.714010
105.7000	10.112413	116.694314
105.7100	10.112413	116.571068
105.7200	10.112413	116.377793
105.7300	10.112413	116.171819
105.7400	10.112413	116.020335
105.7500	10.112413	115.982865
105.7600	10.112413	116.094781
105.7700	10.112413	116.356321
105.7800	10.112413	116.730144
105.7900	10.112413	117.148242
105.8000	10.112413	117.526603
105.8100	10.112413	117.784056
105.8200	10.112413	117.860739
105.8300	10.112413	117.731830
105.8400	10.112413	117.413456
105.8500	10.112413	116.959687
105.8600	10.112413	116.451617
105.8700	10.112413	115.981252
105.8800	10.112413	115.633862
105.8900	10.112413	115.472386
105.9000	10.112413	115.526651
105.9100	10.112413	115.789188
105.9200	10.112413	116.217675
105.9300	10.112413	116.742783
105.9400	10.112413	117.279772
105.9500	10.112413	117.741832
105.9600	10.112413	118.053284
105.9700	10.112413	118.161042
105.9800	10.112413	118.043030
105.9900	10.112413	117.712532
106.0000	10.112413	117.217669
106.0100	10.112413	116.635581
106.0200	10.112413	116.061462
106.0300	10.112413	115.593458
106.0400	10.112413	115.315451
106.0500	10.112413	115.280630
106.0600	10.112413	115.499272
106.0700	10.112413	115.933867
106.0800	10.112413	116.503629
106.0900	10.112413	117.098382
106.1000	10.112413	117.599529
106.1100	10.112413	117.905312
106.1200	10.112413	117.953430
106.1300	10.112413	117.735693
106.1400	10.112413	117.300803
106.1500	10.112413	116.743855
106.1600	10.112413	116.184434
106.1700	10.112413	115.738217
106.1800	10.112413	115.489012
106.1900	10.112413	115.468357
106.2000	10.112413	115.648162
106.2100	10.112413	115.948647
106.2200	10.112413	116.259781
106.2300	10.112413	116.470764
106.2400	10.112413	116.499728
106.2500	10.112413	116.315555
106.2600	10.112413	115.945718
106.2700	10.112413	115.467734
106.2800	10.112413	114.986419
106.2900	10.112413	114.603114
106.3000	10.112413	114.385536
106.3100	10.112413	114.346886
106.3200	10.112413	114.440444
106.3300	10.112413	114.571607
106.3400	10.112413	114.624334
106.3500	10.112413	114.494779
106.3600	10.112413	114.122565
106.3700	10.112413	113.510596
106.3800	10.112413	112.727275
106.3900	10.112413	111.889899
106.4000	10.112413	111.133325
106.4100	10.112413	110.572363
106.4200	10.112413	110.268370
106.4300	10.112413	110.209655
106.4400	10.112413	110.311671
106.4500	10.112413	110.437539
106.4600	10.112413	110.433777
106.4700	10.112413	110.171684
106.4800	10.112413	109.583086
106.4900	10.112413	108.680425
106.5000	10.112413	107.555362
106.5100	10.112413	106.355898
106.5200	10.112413	105.247898
106.5300	10.112413	104.371308
106.5400	10.112413	103.802849
106.5500	10.112413	103.535321
106.5600	10.112413	103.479148
106.5700	10.112413	103.485763
106.5800	10.112413	103.386515
106.5900	10.112413	103.036608
